<svg width="18" height="18" viewBox="0 0 18 18" fill="none" xmlns="http://www.w3.org/2000/svg">
<g clip-path="url(#clip0_0_33)">
<path fill-rule="evenodd" clip-rule="evenodd" d="M1.5 2.81064C1.5 2.29346 1.5 2.03488 1.60028 1.82674C1.68866 1.64332 1.83079 1.48786 2.00974 1.37888C2.21281 1.25522 2.48278 1.21852 3.02274 1.1451L10.7234 0.0980994C11.4224 0.00306294 11.7719 -0.0444553 12.0435 0.0558757C12.2819 0.14395 12.4809 0.30747 12.6067 0.518724C12.75 0.759376 12.75 1.09413 12.75 1.76363V16.2364C12.75 16.9059 12.75 17.2406 12.6067 17.4813C12.4809 17.6925 12.2819 17.856 12.0435 17.9441C11.7719 18.0445 11.4224 17.9969 10.7234 17.9019L3.02274 16.8549C2.48278 16.7815 2.21281 16.7448 2.00974 16.6211C1.83079 16.5121 1.68866 16.3567 1.60028 16.1733C1.5 15.9651 1.5 15.7065 1.5 15.1894V2.81064ZM9.75 7.69044C9.75 7.53295 9.75 7.45421 9.77645 7.39197C9.79974 7.33715 9.8371 7.29135 9.88375 7.26042C9.93672 7.22529 10.0068 7.21816 10.1469 7.20391L10.7741 7.14006C10.9392 7.12326 11.0217 7.11486 11.0854 7.14568C11.1414 7.17276 11.1877 7.22005 11.2168 7.28002C11.25 7.34827 11.25 7.44105 11.25 7.6266V10.3734C11.25 10.559 11.25 10.6517 11.2168 10.72C11.1877 10.7799 11.1414 10.8272 11.0854 10.8543C11.0217 10.8851 10.9392 10.8767 10.7741 10.8599L10.1469 10.7961C10.0068 10.7818 9.93672 10.7747 9.88375 10.7396C9.8371 10.7086 9.79974 10.6628 9.77645 10.608C9.75 10.5458 9.75 10.467 9.75 10.3096V7.69044ZM14.8667 1.875H13.875V16.5H14.8667C15.4384 16.5 15.7242 16.5 15.9426 16.3884C16.1347 16.2903 16.2909 16.1337 16.3887 15.941C16.5 15.722 16.5 15.4354 16.5 14.862V3.513C16.5 2.93965 16.5 2.65297 16.3887 2.43398C16.2909 2.24135 16.1347 2.08473 15.9426 1.98658C15.7242 1.875 15.4384 1.875 14.8667 1.875Z" fill="url(#paint0_linear_0_33)"/>
</g>
<defs>
<linearGradient id="paint0_linear_0_33" x1="-3.14286" y1="12.4482" x2="15.3336" y2="4.89512" gradientUnits="userSpaceOnUse">
<stop stop-color="#4B2EFB"/>
<stop offset="1" stop-color="#E65FFC"/>
</linearGradient>
<clipPath id="clip0_0_33">
<rect width="15" height="18" fill="white" transform="translate(1.5)"/>
</clipPath>
</defs>
</svg>
